<svg width="260" height="259" viewBox="0 0 260 259" fill="none" xmlns="http://www.w3.org/2000/svg">
<path d="M138.314 107.688L131.861 75.1885L120.14 11.9708C118.933 5.46072 112.681 1.15843 106.169 2.3566L104.516 2.66089L11.7859 21.0713C5.28535 22.362 1.06187 28.6779 2.35248 35.1785L21.712 132.688C23.0032 139.192 29.3247 143.416 35.8277 142.12L75.7871 134.156" stroke="white" stroke-width="3"/>
<ellipse cx="66.8942" cy="61.0186" rx="18.7997" ry="21.0114" transform="rotate(-12.243 66.8942 61.0186)" stroke="white" stroke-width="3"/>
<path d="M78.5625 78.29L78.7261 79.6132C79.4988 85.8625 84.6393 90.6596 90.927 90.999L105.739 91.7987C107.468 91.892 109.09 92.3822 110.515 93.1802" stroke="white" stroke-width="3" stroke-linecap="round" stroke-linejoin="round"/>
<path d="M62.3517 81.8076L62.7512 83.0796C64.6382 89.0871 61.9483 95.5833 56.3667 98.4983L43.2182 105.365C38.255 107.957 36.0309 113.864 38.0519 119.086L45.2861 139.656" stroke="white" stroke-width="3" stroke-linecap="round" stroke-linejoin="round"/>
<rect x="114.375" y="87.6582" width="119.238" height="123.422" rx="12" transform="rotate(39.8664 114.375 87.6582)" stroke="white" stroke-width="3"/>
<path d="M56.3438 158.323C94.0268 168.267 113.637 184.544 145.826 233.265" stroke="white" stroke-width="3" stroke-linecap="round" stroke-linejoin="round"/>
<circle cx="121.516" cy="148.343" r="20.5" transform="rotate(9.86643 121.516 148.343)" stroke="white" stroke-width="3"/>
<path d="M122.073 150.977L152.229 176.014M138.522 149.777L150.859 160.551M103.098 125.854L115.434 136.627" stroke="white" stroke-width="3" stroke-linecap="round" stroke-linejoin="round"/>
<rect x="170.484" y="17.5" width="69" height="69" rx="10.5" stroke="white" stroke-width="3"/>
<path d="M181.984 47.5935L200.341 65.807C202.681 68.128 206.454 68.128 208.793 65.807L257.984 17" stroke="white" stroke-width="3" stroke-linecap="round"/>
</svg>
